<?xml version="1.0" encoding="utf-8"?>
<svg width="12" height="12" viewBox="0 0 12 12" fill="none" xmlns="http://www.w3.org/2000/svg">
  <g>
    <path d="M3.91044 0C3.65194 0 3.40496 0.102156 3.22196 0.285156C3.22196 0.285156 3.00712 0.5 3.00712 0.5C3.00712 0.5 0.507121 0.5 0.507121 0.5C0.326803 0.49745 0.15908 0.592188 0.068177 0.747937C-0.0227261 0.903686 -0.0227257 1.09632 0.0681779 1.25206C0.159081 1.40781 0.326805 1.50255 0.507123 1.5C0.507123 1.5 8.50712 1.5 8.50712 1.5C8.68744 1.50255 8.85516 1.40781 8.94606 1.25206C9.03697 1.09631 9.03697 0.903684 8.94606 0.747936C8.85516 0.592187 8.68744 0.497449 8.50712 0.5C8.50712 0.5 6.00712 0.5 6.00712 0.5C6.00712 0.5 5.79228 0.285156 5.79228 0.285156C5.60978 0.102156 5.3623 0 5.1038 0C5.1038 0 3.91044 0 3.91044 0C3.91044 0 3.91044 0 3.91044 0ZM0.689758 2.5C0.689758 2.5 1.45343 9.13184 1.45343 9.13184C1.51943 9.62684 1.94564 10 2.44464 10C2.44464 10 6.56866 10 6.56866 10C7.06766 10 7.49435 9.62743 7.56085 9.12793C7.56085 9.12793 8.32452 2.5 8.32452 2.5L0.689758 2.5L0.689758 2.5Z" fill="#A4243B" transform="translate(1.493 1)" />
  </g>
</svg>