<?xml version="1.0" encoding="utf-8"?>
<svg width="14" height="4" viewBox="0 0 14 4" fill="none" xmlns="http://www.w3.org/2000/svg">
  <g>
    <path d="M0 2C0 0.89543 0.89543 0 2 0C3.10457 0 4 0.89543 4 2C4 3.10457 3.10457 4 2 4C0.89543 4 0 3.10457 0 2Z" fill="#BD632F" fill-rule="evenodd" />
    <path d="M0 2C0 0.89543 0.895431 0 2 0C3.10457 0 4 0.89543 4 2C4 3.10457 3.10457 4 2 4C0.895431 4 0 3.10457 0 2Z" fill="#BD632F" fill-rule="evenodd" transform="translate(5 0)" />
    <path d="M0 2C0 0.89543 0.895431 0 2 0C3.10457 0 4 0.89543 4 2C4 3.10457 3.10457 4 2 4C0.895431 4 0 3.10457 0 2Z" fill="#BD632F" fill-rule="evenodd" transform="translate(10 0)" />
  </g>
</svg>